<!-- Generated by IcoMoon.io -->
<svg version="1.1" xmlns="http://www.w3.org/2000/svg" width="32" height="32" viewBox="0 0 32 32">
<path fill="#fff" d="M15.851 0c-8.706 0-15.851 7.145-15.851 15.851 0 7.43 5.213 14.179 12.136 15.851v-5.244c-0.686 0.15-1.317 0.155-2.016-0.051-0.937-0.277-1.698-0.901-2.263-1.852-0.36-0.608-0.998-1.266-1.664-1.218l-0.163-1.85c1.44-0.123 2.686 0.877 3.425 2.12 0.328 0.552 0.707 0.876 1.192 1.019 0.469 0.138 0.973 0.072 1.559-0.135 0.147-1.175 0.685-1.615 1.092-2.234v-0.001c-4.129-0.616-5.774-2.806-6.427-4.535-0.865-2.296-0.401-5.163 1.129-6.976 0.030-0.035 0.083-0.128 0.063-0.192-0.702-2.12 0.153-3.873 0.185-4.059 0.81 0.239 0.941-0.241 3.518 1.324l0.445 0.268c0.186 0.111 0.128 0.048 0.314 0.034 1.076-0.292 2.21-0.454 3.327-0.468 1.126 0.015 2.252 0.176 3.372 0.48l0.144 0.014c-0.013-0.002 0.039-0.009 0.126-0.061 3.218-1.949 3.102-1.312 3.965-1.593 0.031 0.186 0.875 1.968 0.181 4.061-0.094 0.288 2.79 2.929 1.192 7.167-0.653 1.73-2.298 3.92-6.427 4.536v0.001c0.529 0.807 1.165 1.236 1.162 2.9v6.546c6.923-1.673 12.136-8.422 12.136-15.851 0-8.706-7.145-15.851-15.851-15.851v0z"></path>
</svg>
